<?xml version="1.0" standalone="no"?><!DOCTYPE svg PUBLIC "-//W3C//DTD SVG 1.1//EN" "http://www.w3.org/Graphics/SVG/1.1/DTD/svg11.dtd"><svg t="1543284641756" class="icon" style="" viewBox="0 0 1024 1024" version="1.1" xmlns="http://www.w3.org/2000/svg" p-id="17786" xmlns:xlink="http://www.w3.org/1999/xlink" width="32" height="32"><defs><style type="text/css"></style></defs><path d="M1017.28711111 134.71288889V69.40444445H6.82666667v65.30844444h261.68888888v183.296H132.55111111C63.03288889 318.00888889 6.82666667 374.32888889 6.82666667 443.73333333v386.16177778c0 69.40444445 56.32 125.72444445 125.72444444 125.72444444h759.01155556c69.40444445 0 125.72444445-56.32 125.72444444-125.72444444V443.73333333c0-69.40444445-56.32-125.72444445-125.72444444-125.72444444H755.59822222V134.71288889h261.68888889zM951.86488889 443.73333333v386.16177778c0 33.33688889-27.07911111 60.416-60.416 60.416h-758.89777778c-33.33688889 0-60.416-27.07911111-60.416-60.416V443.73333333c0-33.33688889 27.07911111-60.416 60.416-60.416h759.01155556c33.22311111 0 60.30222222 27.07911111 60.30222222 60.416zM708.03911111 318.00888889H315.96088889V134.71288889h392.07822222v183.296z m0 0" p-id="17787"></path><path d="M259.64088889 732.16c48.24177778 0 57.91288889-33.90577778 57.91288889-73.27288889h-36.75022223c0 39.36711111-9.67111111 46.19377778-22.9831111 46.19377778-15.81511111 0-23.43822222-10.01244445-23.43822223-65.08088889 0-51.54133333 4.32355555-70.20088889 22.98311111-70.20088889 16.61155555 0 21.95911111 11.49155555 21.95911112 38.00177778h36.75022222c0-26.51022222-3.86844445-65.08088889-56.43377778-65.08088889-55.18222222 0-62.00888889 39.36711111-62.00888889 94.77688889 0 55.296 6.94044445 94.66311111 62.00888889 94.66311111z m180.79288889-33.792h-65.08088889V546.24711111h-36.75022222v182.272h101.83111111v-30.15111111z m50.28977777-8.41955555H539.30666667l8.41955555 38.57066666H585.95555555l-48.24177777-182.272h-45.39733333l-48.24177778 182.272H482.41777778l8.30577777-38.57066666z m24.00711112-112.07111112h0.45511111l17.63555555 81.92h-35.72622222l17.63555556-81.92z m134.82666666 154.28266667c39.82222222 0 63.37422222-17.408 63.37422222-55.86488889 0-22.18666667-7.168-36.29511111-34.70222222-48.24177778l-28.33066666-12.288c-15.58755555-6.59911111-18.88711111-13.53955555-18.88711112-24.80355555 0-10.69511111 4.32355555-21.16266667 20.93511112-21.16266667 13.99466667 0 19.91111111 10.01244445 19.91111111 27.07911111h35.27111111V591.64444445c0-34.92977778-23.77955555-49.03822222-56.43377778-49.03822223-34.70222222 0-56.43377778 18.09066667-56.43377778 53.58933333 0 30.37866667 15.01866667 43.91822222 47.78666667 55.18222223 24.23466667 8.41955555 32.65422222 14.56355555 32.65422222 31.17511111 0 15.36-10.69511111 22.41422222-21.95911111 22.41422222-19.456 0-24.23466667-11.03644445-24.23466666-28.10311111v-5.34755555H591.64444445v7.39555555c0 33.792 16.27022222 53.248 57.91288888 53.248z m132.55111112 0c39.82222222 0 63.37422222-17.408 63.37422222-55.86488889 0-22.18666667-7.168-36.29511111-34.70222222-48.24177778l-28.33066667-12.288c-15.58755555-6.59911111-18.88711111-13.53955555-18.88711111-24.80355555 0-10.69511111 4.32355555-21.16266667 20.93511111-21.16266667 13.99466667 0 19.91111111 10.01244445 19.91111111 27.07911111h35.27111111V591.64444445c0-34.92977778-23.77955555-49.03822222-56.43377778-49.03822223-34.70222222 0-56.43377778 18.09066667-56.43377777 53.58933333 0 30.37866667 15.01866667 43.91822222 47.78666666 55.18222223 24.23466667 8.41955555 32.65422222 14.56355555 32.65422222 31.17511111 0 15.36-10.69511111 22.41422222-21.95911111 22.41422222-19.456 0-24.23466667-11.03644445-24.23466667-28.10311111v-5.34755555h-36.75022222v7.39555555c-0.11377778 33.792 16.15644445 53.248 57.79911112 53.248z m0 0" p-id="17788"></path></svg>