<?xml version="1.0" standalone="no"?><!DOCTYPE svg PUBLIC "-//W3C//DTD SVG 1.1//EN" "http://www.w3.org/Graphics/SVG/1.1/DTD/svg11.dtd"><svg t="1550462562443" class="icon" style="" viewBox="0 0 1024 1024" version="1.1" xmlns="http://www.w3.org/2000/svg" p-id="8007" xmlns:xlink="http://www.w3.org/1999/xlink" width="64" height="64"><defs><style type="text/css"></style></defs><path d="M928 226.112h96v256h-96V992a32 32 0 0 1-64 0V482.112h-96v-256h96V32a32 32 0 0 1 64 0v194.112z m-384 320h96v256h-96V992a32 32 0 0 1-64 0V802.112h-96v-256h96V32a32 32 0 0 1 64 0v514.112z m-384-320h96v256h-96V992a32 32 0 0 1-64 0V482.112H0v-256h96V32a32 32 0 0 1 64 0v194.112z m-96 64v128h128v-128H64z m384 320v128h128v-128H448z m384-320v128h128v-128H832z" p-id="8008"></path></svg>