<?xml version="1.0" standalone="no"?><!DOCTYPE svg PUBLIC "-//W3C//DTD SVG 1.1//EN" "http://www.w3.org/Graphics/SVG/1.1/DTD/svg11.dtd"><svg t="1543284174077" class="icon" style="" viewBox="0 0 1024 1024" version="1.1" xmlns="http://www.w3.org/2000/svg" p-id="2505" xmlns:xlink="http://www.w3.org/1999/xlink" width="64" height="64"><defs><style type="text/css"></style></defs><path d="M745.989888 542.72c103.424-2.56 182.784-82.432 185.856-185.856 2.56-103.424-86.528-183.296-185.856-185.856-25.088-0.512-25.088 37.888 0 38.4 81.92 2.048 144.896 65.536 147.456 147.456 2.048 81.92-68.608 144.896-147.456 147.456-25.088 0.512-25.088 38.912 0 38.4z" p-id="2506"></path><path d="M1022.469888 817.664c18.432-165.888-109.568-310.272-275.456-312.832-25.088-0.512-25.088 37.888 0 38.4 147.456 2.56 253.952 129.536 237.056 274.432-3.072 24.064 35.328 24.064 38.4 0zM641.541888 292.864c-2.048 119.808-96.768 214.016-216.064 216.064-119.808 3.072-214.528-99.328-216.576-216.064C206.341888 173.568 308.741888 78.848 424.965888 76.8c119.808-2.56 214.016 99.84 216.576 216.064 0.512 40.96 64.512 41.472 64 0-2.56-148.48-115.2-266.752-262.656-279.552-145.408-12.8-278.528 102.4-295.424 244.736-17.92 145.408 81.92 282.624 225.792 310.784 144.896 28.16 286.72-66.048 324.096-206.336 5.632-22.528 8.192-46.08 8.192-69.12 0.512-41.472-63.488-41.472-64-0.512z" p-id="2507"></path><path d="M833.029888 980.992c30.208-247.808-166.4-467.456-415.232-470.016C168.965888 508.416-27.130112 737.28 3.077888 980.992c5.12 40.448 69.12 40.96 64 0-25.6-213.504 134.144-403.968 350.72-405.504 101.376-1.536 196.608 45.056 264.704 119.296 71.168 77.312 98.304 183.808 86.016 287.232-4.096 39.936 59.904 39.424 64.512-1.024z" p-id="2508"></path></svg>