<?xml version="1.0" standalone="no"?><!DOCTYPE svg PUBLIC "-//W3C//DTD SVG 1.1//EN" "http://www.w3.org/Graphics/SVG/1.1/DTD/svg11.dtd"><svg t="1546055441683" class="icon" style="" viewBox="0 0 1024 1024" version="1.1" xmlns="http://www.w3.org/2000/svg" p-id="2168" xmlns:xlink="http://www.w3.org/1999/xlink" width="64" height="64"><defs><style type="text/css"></style></defs><path d="M0.586504 1024 0.586504 147.86032l131.416069 0L132.002572 16.444251l876.13968 0L1008.142252 1024 0.586504 1024 0.586504 1024zM942.450831 82.135672l-744.723611 0 0 810.448259-65.724648 0L132.002572 213.585975 64.917639 213.585975l0 744.723611 877.533192 0L942.450831 82.135672 942.450831 82.135672zM526.284005 410.692457 263.417634 410.692457 263.417634 147.86032l262.865364 0L526.282998 410.692457 526.284005 410.692457zM460.55835 213.585975 329.142282 213.585975l0 131.415062 131.416069 0L460.55835 213.585975 460.55835 213.585975zM876.725177 542.141753 263.417634 542.141753l0-43.839254 613.307543 0L876.725177 542.141753 876.725177 542.141753zM876.725177 629.752801 263.417634 629.752801l0-43.805021 613.307543 0L876.725177 629.752801 876.725177 629.752801zM526.284005 717.362842 263.417634 717.362842l0-43.805021 262.865364 0L526.282998 717.362842 526.284005 717.362842zM526.284005 804.97389 263.417634 804.97389l0-43.806027 262.865364 0L526.282998 804.97389 526.284005 804.97389zM526.284005 892.583931 263.417634 892.583931 263.417634 848.778911l262.865364 0L526.282998 892.583931 526.284005 892.583931zM876.725177 717.362842 613.894046 717.362842l0-43.805021 262.832137 0L876.726184 717.362842 876.725177 717.362842zM876.725177 804.97389 613.894046 804.97389l0-43.806027 262.832137 0L876.726184 804.97389 876.725177 804.97389zM876.725177 892.583931 613.894046 892.583931 613.894046 848.778911l262.832137 0L876.726184 892.583931 876.725177 892.583931zM613.894046 366.88643l262.832137 0 0 43.806027L613.894046 410.692457 613.894046 366.88643 613.894046 366.88643zM613.894046 301.196016l262.832137 0 0 43.805021L613.894046 345.001036 613.894046 301.196016 613.894046 301.196016zM613.894046 235.471368l262.832137 0 0 43.805021L613.894046 279.276389 613.894046 235.471368 613.894046 235.471368z" p-id="2169"></path></svg>