<?xml version="1.0" standalone="no"?><!DOCTYPE svg PUBLIC "-//W3C//DTD SVG 1.1//EN" "http://www.w3.org/Graphics/SVG/1.1/DTD/svg11.dtd"><svg t="1546826017703" class="icon" style="" viewBox="0 0 1024 1024" version="1.1" xmlns="http://www.w3.org/2000/svg" p-id="3912" xmlns:xlink="http://www.w3.org/1999/xlink" width="48" height="48"><defs><style type="text/css"></style></defs><path d="M927.68 704h-96V448c0-146.624-100.48-269.696-235.584-307.2A94.72 94.72 0 0 0 607.68 96a96 96 0 0 0-192 0c0 16.256 4.416 31.36 11.584 44.8C292.16 178.24 191.68 301.376 191.68 448v256h-96c-17.6 0-32 14.4-32 32s14.4 32 32 32h832c17.6 0 32-14.4 32-32s-14.4-32-32-32z m-416-640a32 32 0 1 1 0 64 32 32 0 0 1 0-64z m-256 640V448c0-140.8 115.2-256 256-256 70.4 0 134.4 28.8 180.48 74.88C738.88 313.6 767.68 377.6 767.68 448v256h-512z m352.064 96a32 32 0 0 0-32 32h-0.064c0 35.2-28.8 64-64 64-35.136 0-63.936-28.736-64-63.872V832a32 32 0 0 0-64 0c0 70.4 57.6 128 128 128a128.256 128.256 0 0 0 127.936-127.552l0.064-0.448a31.936 31.936 0 0 0-31.936-32z m-512-416a32 32 0 0 0 32-32c0-109.312 105.28-160.96 109.696-163.072a32 32 0 0 0-27.328-57.856C204.16 133.888 63.744 201.6 63.744 352c0 17.728 14.272 32 32 32z m690.24-195.328c1.152 0.576 110.336 56.384 110.336 163.392a32 32 0 0 0 64 0c0-146.112-139.776-217.664-145.664-220.608a31.936 31.936 0 1 0-28.672 57.216z" p-id="3913"></path></svg>