<?xml version="1.0" standalone="no"?><!DOCTYPE svg PUBLIC "-//W3C//DTD SVG 1.1//EN" "http://www.w3.org/Graphics/SVG/1.1/DTD/svg11.dtd"><svg t="1546998456903" class="icon" style="" viewBox="0 0 1024 1024" version="1.1" xmlns="http://www.w3.org/2000/svg" p-id="1202" xmlns:xlink="http://www.w3.org/1999/xlink" width="48" height="48"><defs><style type="text/css"></style></defs><path d="M960.512 0H63.488C28.672 0 0 28.672 0 63.488v897.024C0 995.328 28.672 1024 63.488 1024h897.024c34.816 0 63.488-28.672 63.488-63.488V63.488C1024 28.672 995.328 0 960.512 0zM290.816 63.488h169.984V286.72l-63.488-28.672-20.48-10.24-20.48 10.24-65.536 28.672V63.488z m669.696 864.256c0 18.432-14.336 32.768-32.768 32.768H96.256c-18.432 0-32.768-14.336-32.768-32.768V96.256c0-18.432 14.336-32.768 32.768-32.768h143.36v256c0 18.432 14.336 32.768 32.768 32.768l104.448-47.104 104.448 47.104c18.432 0 32.768-14.336 32.768-32.768V63.488h415.744c18.432 0 32.768 14.336 32.768 32.768v831.488z" p-id="1203"></path><path d="M303.104 671.744h-32.768c-18.432 0-32.768 14.336-32.768 32.768 0 18.432 14.336 32.768 32.768 32.768h32.768c18.432 0 32.768-14.336 32.768-32.768 0-18.432-14.336-32.768-32.768-32.768zM303.104 495.616h-32.768c-18.432 0-32.768 14.336-32.768 32.768s14.336 32.768 32.768 32.768h32.768c18.432 0 32.768-14.336 32.768-32.768s-14.336-32.768-32.768-32.768zM751.616 495.616H432.128c-18.432 0-32.768 14.336-32.768 32.768s14.336 32.768 32.768 32.768h319.488c18.432 0 32.768-14.336 32.768-32.768s-14.336-32.768-32.768-32.768zM751.616 671.744H432.128c-18.432 0-32.768 14.336-32.768 32.768 0 18.432 14.336 32.768 32.768 32.768h319.488c18.432 0 32.768-14.336 32.768-32.768 0-18.432-14.336-32.768-32.768-32.768z" p-id="1204"></path></svg>