<?xml version="1.0" standalone="no"?><!DOCTYPE svg PUBLIC "-//W3C//DTD SVG 1.1//EN" "http://www.w3.org/Graphics/SVG/1.1/DTD/svg11.dtd"><svg t="1543284309474" class="icon" style="" viewBox="0 0 1126 1024" version="1.1" xmlns="http://www.w3.org/2000/svg" p-id="3310" xmlns:xlink="http://www.w3.org/1999/xlink" width="70.375" height="64"><defs><style type="text/css"></style></defs><path d="M389.5808 177.3568h346.7264v-86.528H389.5808v86.528z m520.0896 0h86.6816c23.296 0 43.3664 19.968 43.3664 45.9264v668.7744c0 25.4464-19.5072 45.9776-43.3664 45.9776H130.048c-23.8592 0-43.3664-20.0192-43.3664-45.9776V222.7712c0-25.4464 19.5072-45.9776 43.8784-45.9776h88.32v-86.528H130.56C57.9584 90.2656 0 149.76 0 222.7712v668.7744C0 964.5056 57.9584 1024 130.048 1024h866.304c72.0896 0 130.048-59.4944 130.048-132.4544V222.7712c0-73.0112-57.9584-132.5056-130.048-132.5056h-86.6816v87.0912zM259.5328 43.264C259.5328 19.456 279.04 0 302.848 0c23.8592 0 43.3664 19.456 43.3664 43.264v181.6576a43.4688 43.4688 0 0 1-43.3664 43.264 43.4688 43.4688 0 0 1-43.3152-43.264V43.264z m520.1408 0c0-23.808 19.456-42.7008 43.3152-42.7008 23.8592 0 43.3664 19.456 43.3664 42.7008v181.6576a43.008 43.008 0 0 1-43.3664 42.7008 43.264 43.264 0 0 1-43.3152-42.7008V43.264zM259.5328 444.416a43.52 43.52 0 0 1 43.8784-43.264h519.5776c23.8592 0 43.8784 19.456 43.8784 43.264a43.52 43.52 0 0 1-43.8784 43.264H303.4112a43.2128 43.2128 0 0 1-43.8784-43.264z m0 222.7712a43.52 43.52 0 0 1 43.8784-43.264h519.5776c23.8592 0 43.8784 19.456 43.8784 43.264a43.52 43.52 0 0 1-43.8784 43.2128H303.4112a43.1616 43.1616 0 0 1-43.8784-43.2128z" p-id="3311"></path></svg>